<!--
  - Copyright (c) 2023 SAP SE or an SAP affiliate company.
  - All rights reserved.
  -
  - This software is the confidential and proprietary information of SAP
  - ("Confidential Information"). You shall not disclose such Confidential
  - Information and shall use it only in accordance with the terms of the
  - license agreement you entered into with SAP.
  -->

<svg width="261" height="171" viewBox="0 0 261 171" fill="none" xmlns="http://www.w3.org/2000/svg">
  <path d="M132.728 144.948L132.503 145.395L132.728 144.948ZM2.28957 0.602562C2.36763 0.337682 2.64564 0.186234 2.91052 0.264292L7.22699 1.53633C7.49187 1.61439 7.64332 1.8924 7.56526 2.15728C7.4872 2.42216 7.20919 2.57361 6.94431 2.49555L3.10745 1.36485L1.97675 5.20171C1.89869 5.46659 1.62068 5.61804 1.3558 5.53998C1.09092 5.46192 0.939473 5.18391 1.01753 4.91903L2.28957 0.602562ZM2.76918 0.7439C3.20826 0.504707 3.20825 0.504704 3.20825 0.504704C3.20826 0.504711 3.20826 0.504717 3.20827 0.50473C3.20828 0.504756 3.20831 0.504801 3.20834 0.504864C3.20841 0.504991 3.20852 0.505192 3.20867 0.505468C3.20897 0.50602 3.20943 0.506868 3.21006 0.508014C3.21131 0.510305 3.21321 0.513783 3.21575 0.518441C3.22084 0.527756 3.22852 0.541791 3.23876 0.560493C3.25926 0.597897 3.29004 0.65397 3.33101 0.728286C3.41293 0.87692 3.53557 1.09853 3.69804 1.38974C4.02298 1.97214 4.50723 2.83291 5.14372 3.94496L4.27583 4.44171C3.63745 3.32637 3.15141 2.46242 2.82476 1.87696C2.66144 1.58423 2.53797 1.36111 2.45523 1.21101C2.41386 1.13596 2.38268 1.07915 2.36179 1.04103C2.35134 1.02196 2.34347 1.00757 2.33818 0.997896C2.33554 0.993059 2.33355 0.989403 2.3322 0.986933C2.33153 0.985699 2.33101 0.984761 2.33067 0.98412C2.33049 0.9838 2.33036 0.983555 2.33026 0.983383C2.33022 0.983298 2.33018 0.983231 2.33015 0.983182C2.33014 0.983158 2.33013 0.983136 2.33012 0.983124C2.33011 0.983106 2.33011 0.983093 2.76918 0.7439ZM7.68668 8.32008C8.85489 10.3022 10.2407 12.6188 11.8309 15.2199L10.9777 15.7415C9.38451 13.1356 7.99597 10.8144 6.82517 8.82782L7.68668 8.32008ZM14.475 19.5C15.8117 21.6419 17.2575 23.9265 18.8071 26.3333L17.9663 26.8746C16.414 24.4637 14.9657 22.1751 13.6266 20.0294L14.475 19.5ZM21.5421 30.5414C22.9609 32.7043 24.4529 34.9473 26.0147 37.258L25.1862 37.818C23.6217 35.5034 22.1272 33.2565 20.7059 31.09L21.5421 30.5414ZM28.852 41.417C30.3367 43.5731 31.8768 45.7783 33.4698 48.0233L32.6543 48.602C31.0584 46.3531 29.5157 44.144 28.0284 41.9842L28.852 41.417ZM36.3951 52.1067C37.9424 54.2461 39.5346 56.4153 41.1698 58.6067L40.3684 59.2048C38.7301 57.0093 37.1349 54.836 35.5848 52.6927L36.3951 52.1067ZM44.1909 62.6152C45.7975 64.7257 47.4421 66.8522 49.1228 68.988L48.3369 69.6064C46.6528 67.4662 45.005 65.3355 43.3952 63.2209L44.1909 62.6152ZM52.2586 72.9306C53.9269 75.0055 55.628 77.0853 57.3604 79.1642L56.5922 79.8044C54.8559 77.7209 53.1511 75.6365 51.4793 73.5572L52.2586 72.9306ZM60.6105 83.019C62.3437 85.0506 64.1058 87.0775 65.8956 89.0944L65.1476 89.7582C63.3534 87.7362 61.587 85.7043 59.8498 83.668L60.6105 83.019ZM69.2565 92.8334C71.0599 94.8136 72.8893 96.7806 74.7434 98.7287L74.019 99.4181C72.1597 97.4644 70.3253 95.4922 68.5171 93.5067L69.2565 92.8334ZM78.2402 102.35C80.1189 104.267 82.0212 106.162 83.9457 108.03L83.2493 108.747C81.3185 106.874 79.4103 104.973 77.5259 103.05L78.2402 102.35ZM87.5847 111.503C89.5462 113.344 91.5292 115.153 93.5322 116.926L92.8694 117.675C90.8588 115.895 88.8687 114.079 86.9005 112.232L87.5847 111.503ZM97.3331 120.226C99.3858 121.972 101.458 123.677 103.548 125.336L102.927 126.12C100.827 124.453 98.746 122.741 96.6851 120.987L97.3331 120.226ZM107.516 128.411C109.669 130.04 111.839 131.616 114.026 133.134L113.455 133.956C111.257 132.429 109.075 130.845 106.912 129.209L107.516 128.411ZM118.197 135.947C120.459 137.425 122.736 138.838 125.027 140.181L124.522 141.044C122.216 139.693 119.924 138.27 117.65 136.784L118.197 135.947ZM129.407 142.649C130.586 143.286 131.768 143.904 132.953 144.502L132.503 145.395C131.309 144.793 130.118 144.17 128.932 143.528L129.407 142.649ZM132.953 144.502C134.17 145.116 135.384 145.715 136.593 146.3L136.157 147.2C134.943 146.613 133.725 146.011 132.503 145.395L132.953 144.502ZM141.148 148.447C143.633 149.588 146.098 150.668 148.54 151.692L148.153 152.614C145.701 151.586 143.226 150.501 140.731 149.356L141.148 148.447ZM153.199 153.587C155.747 154.593 158.27 155.537 160.763 156.423L160.428 157.365C157.924 156.475 155.391 155.527 152.832 154.517L153.199 153.587ZM165.521 158.055C168.127 158.918 170.7 159.717 173.236 160.458L172.955 161.418C170.408 160.674 167.824 159.871 165.206 159.004L165.521 158.055ZM178.084 161.815C180.741 162.526 183.354 163.174 185.92 163.761L185.697 164.736C183.119 164.146 180.494 163.496 177.826 162.781L178.084 161.815ZM190.847 164.831C193.543 165.383 196.182 165.87 198.76 166.299L198.596 167.285C196.006 166.855 193.355 166.365 190.647 165.81L190.847 164.831ZM203.745 167.066C206.498 167.456 209.174 167.779 211.767 168.044L211.666 169.039C209.06 168.773 206.371 168.448 203.605 168.056L203.745 167.066ZM216.787 168.494C219.584 168.709 222.271 168.857 224.84 168.949L224.804 169.948C222.222 169.856 219.522 169.707 216.71 169.491L216.787 168.494ZM229.876 169.063C232.739 169.09 235.427 169.049 237.927 168.961L237.963 169.96C235.448 170.049 232.745 170.09 229.867 170.063L229.876 169.063ZM242.975 168.707C246.035 168.506 248.722 168.242 251 167.968L251.12 168.96C248.825 169.237 246.12 169.503 243.04 169.705L242.975 168.707ZM255.949 167.267C257.239 167.055 258.225 166.866 258.887 166.73C259.218 166.663 259.469 166.608 259.635 166.571C259.719 166.552 259.781 166.538 259.822 166.528C259.843 166.523 259.858 166.52 259.868 166.517C259.873 166.516 259.877 166.515 259.879 166.515C259.88 166.515 259.881 166.514 259.882 166.514C259.882 166.514 259.882 166.514 259.882 166.514C259.882 166.514 259.882 166.514 259.882 166.514C259.882 166.514 259.882 166.514 259.882 166.514C259.882 166.514 259.882 166.514 260 167C260.118 167.486 260.118 167.486 260.118 167.486C260.118 167.486 260.118 167.486 260.118 167.486C260.118 167.486 260.117 167.486 260.117 167.486C260.117 167.486 260.117 167.486 260.116 167.486C260.115 167.487 260.114 167.487 260.113 167.487C260.11 167.488 260.105 167.489 260.1 167.49C260.088 167.493 260.071 167.497 260.049 167.502C260.005 167.512 259.94 167.527 259.854 167.547C259.681 167.585 259.425 167.641 259.088 167.71C258.414 167.848 257.415 168.039 256.112 168.254L255.949 167.267Z" fill="#6A6D70"/>
</svg>
